<!--?xml version="1.0" standalone="no"?-->
              <svg id="sw-js-blob-svg" viewBox="0 0 100 100" xmlns="http://www.w3.org/2000/svg" version="1.1">
                    <defs> 
                        <linearGradient id="sw-gradient" x1="0" x2="1" y1="1" y2="0">
                            <stop id="stop1" stop-color="rgba(248, 117, 55, 1)" offset="0%"></stop>
                            <stop id="stop2" stop-color="rgba(251, 187.965, 31, 1)" offset="100%"></stop>
                        </linearGradient>
                    </defs>
                <path fill="url(#sw-gradient)" d="M17,-18.5C23.8,-14.6,32.3,-10.9,33.6,-5.6C34.9,-0.3,29,6.5,24.3,13.4C19.6,20.3,16,27.1,9.8,31.4C3.5,35.6,-5.3,37.2,-12.3,34.3C-19.3,31.5,-24.5,24.3,-30.2,16.5C-35.9,8.6,-42,0.1,-41.8,-8.5C-41.7,-17.1,-35.2,-25.6,-27.2,-29.3C-19.1,-33,-9.6,-31.8,-2.2,-29.2C5.1,-26.5,10.2,-22.4,17,-18.5Z" width="100%" height="100%" transform="translate(50 50)" stroke-width="0" style="transition: all 0.3s ease 0s;"></path>
              </svg>