<svg xmlns="http://www.w3.org/2000/svg" viewBox="0 0 102.68 102.68"><g id="Layer_2" data-name="Layer 2"><g id="ELEMENTS"><path d="M51.34,0a51.34,51.34,0,1,0,51.34,51.34A51.35,51.35,0,0,0,51.34,0Zm-23,28.23H74.26a7.28,7.28,0,0,1,1.83.24c-.08.08-.17.14-.24.22L55.35,52a5.36,5.36,0,0,1-8.05,0L26.59,28.47A7.09,7.09,0,0,1,28.38,28.23ZM81.37,62A12.46,12.46,0,0,1,68.9,74.45H33.78A12.46,12.46,0,0,1,21.31,62V35.32a7.17,7.17,0,0,1,.57-2.79L42.64,56.08a11.59,11.59,0,0,0,17.4,0L80.55,32.82c.09-.11.15-.22.23-.33a7,7,0,0,1,.59,2.83Z"/></g></g></svg>