<svg xmlns="http://www.w3.org/2000/svg" viewBox="0 0 46.9 46.9"><defs><style>.cls-1{fill:none;stroke:#141613;stroke-width:0.43px;}.cls-1,.cls-2{stroke-miterlimit:10;}.cls-2{fill:#141613;stroke:#000;stroke-width:2px;fill-rule:evenodd;}</style></defs><g id="Layer_2" data-name="Layer 2"><g id="OBJECTS"><path class="cls-1" d="M23.45,46.68h0A23.23,23.23,0,0,1,.22,23.45h0A23.23,23.23,0,0,1,23.45.22h0A23.23,23.23,0,0,1,46.68,23.45h0A23.23,23.23,0,0,1,23.45,46.68Z"/><path class="cls-2" d="M33.42,27.74c-.56-.27-3.23-1.58-3.73-1.76s-.87-.27-1.23.27S27,28,26.73,28.36s-.64.41-1.19.14a14.72,14.72,0,0,1-4.39-2.69,16.31,16.31,0,0,1-3-3.74c-.31-.54,0-.83.24-1.1s.54-.64.82-.95c.08-.09.14-.18.2-.26a4.89,4.89,0,0,0,.34-.65,1,1,0,0,0,0-.95c-.13-.27-1.23-2.93-1.68-4s-.91-.89-1.23-.89-.68-.06-1-.06a2,2,0,0,0-1.45.68,6.07,6.07,0,0,0-1.91,4.52,6.79,6.79,0,0,0,.28,1.85A12.25,12.25,0,0,0,14.59,24c.27.35,3.77,6,9.31,8.18s5.56,1.43,6.56,1.34,3.23-1.3,3.67-2.57a4.57,4.57,0,0,0,.33-2.58C34.32,28.15,34,28,33.42,27.74Z"/></g></g></svg>